<?xml version="1.0" standalone="no"?>
<!DOCTYPE svg PUBLIC "-//W3C//DTD SVG 20010904//EN"
 "http://www.w3.org/TR/2001/REC-SVG-20010904/DTD/svg10.dtd">
<svg version="1.0" xmlns="http://www.w3.org/2000/svg"
 width="1024.000000pt" height="1024.000000pt" viewBox="0 0 1024.000000 1024.000000"
 preserveAspectRatio="xMidYMid meet">

<g transform="translate(0.000000,1024.000000) scale(0.100000,-0.100000)"
fill="#000000" stroke="none">
<path d="M8832 9392 c-22 -7 -20 -9 27 -56 l50 -50 17 40 c9 21 20 47 25 57 9
15 4 17 -43 16 -29 -1 -63 -4 -76 -7z"/>
<path d="M7922 9099 c-21 -26 -23 -49 -3 -49 7 0 34 72 28 76 -1 1 -12 -11
-25 -27z"/>
<path d="M2085 8850 c49 -49 91 -90 92 -90 2 0 -17 41 -42 90 l-45 90 -47 0
-48 0 90 -90z"/>
<path d="M8042 6944 c-5 -16 -65 -168 -131 -338 -67 -170 -121 -313 -121 -318
0 -5 27 -55 61 -111 220 -369 353 -756 416 -1207 24 -175 24 -605 0 -780 -98
-702 -397 -1315 -879 -1800 -803 -811 -1949 -1115 -3058 -814 -843 229 -1570
834 -1960 1629 -172 350 -266 674 -306 1055 -21 206 -15 576 14 765 66 428
201 805 419 1168 l65 109 -57 125 c-98 217 -238 503 -246 503 -22 0 -252 -330
-351 -505 -252 -444 -414 -961 -470 -1495 -17 -169 -14 -555 6 -738 79 -726
349 -1383 803 -1953 128 -161 407 -442 558 -562 236 -188 426 -311 685 -440
419 -210 783 -318 1280 -379 162 -20 660 -17 840 5 1057 129 1992 683 2610
1547 384 537 624 1191 680 1856 16 186 8 617 -14 784 -96 713 -357 1321 -814
1899 l-19 24 -11 -29z m-3719 -5507 c56 -28 87 -68 87 -111 0 -29 -7 -31 -61
-15 -27 8 -39 19 -44 36 -12 49 -125 70 -125 23 0 -14 24 -31 91 -66 73 -38
94 -54 105 -79 19 -46 2 -100 -39 -126 -63 -40 -226 -3 -282 63 -27 32 -35 98
-12 98 41 0 83 -22 97 -52 24 -51 118 -72 134 -31 9 23 -9 39 -86 74 -88 41
-122 79 -114 128 3 23 17 47 37 65 30 27 36 28 96 23 39 -3 83 -15 116 -30z
m400 3 c4 -4 -8 -19 -27 -33 -35 -27 -64 -32 -100 -18 -17 6 -16 9 9 39 24 29
30 31 68 26 23 -4 46 -10 50 -14z m1510 -142 c59 -75 107 -138 107 -141 0 -2
-21 -10 -47 -17 -47 -11 -48 -11 -70 17 -25 30 -28 30 -110 7 -48 -14 -52 -17
-58 -53 -6 -36 -10 -40 -51 -51 -25 -7 -46 -11 -48 -9 -3 5 41 369 45 374 2 2
27 10 54 18 39 12 52 12 60 3 6 -7 58 -73 118 -148z m-1594 67 c79 -13 145
-25 146 -27 1 -2 0 -18 -2 -35 -6 -39 -6 -39 -127 -17 -48 8 -89 14 -91 12 -1
-2 -5 -15 -9 -29 -7 -31 -8 -30 117 -50 l77 -12 0 -33 c0 -40 -9 -41 -130 -19
-41 7 -77 12 -78 10 -2 -2 -5 -18 -5 -36 l-2 -33 100 -17 c55 -10 101 -18 103
-18 1 -1 2 -11 2 -23 0 -50 -7 -51 -165 -24 -81 14 -149 27 -151 29 -3 3 39
272 51 325 3 12 9 22 13 22 4 0 72 -11 151 -25z m1049 -46 l3 -36 -73 -7
c-133 -12 -138 -14 -138 -48 l0 -31 63 7 c34 4 81 9 103 12 41 6 42 5 47 -28
2 -18 3 -35 1 -37 -2 -2 -48 -8 -101 -14 -54 -5 -100 -11 -101 -13 -2 -1 -1
-17 3 -35 l7 -32 77 7 c42 4 91 9 109 12 32 6 32 6 32 -35 0 -29 -4 -41 -14
-41 -8 0 -76 -7 -151 -15 -76 -9 -140 -14 -142 -12 -4 4 -8 33 -28 212 -8 71
-12 132 -9 135 6 6 270 38 294 36 10 -1 16 -14 18 -37z m-698 6 c116 -7 162
-20 174 -50 13 -34 6 -93 -14 -117 -13 -17 -16 -28 -9 -35 6 -6 14 -45 18 -87
8 -85 8 -85 -68 -70 -30 6 -31 8 -31 60 0 64 -12 74 -94 74 l-56 0 0 -59 c0
-33 -4 -62 -8 -65 -4 -2 -27 -2 -51 1 l-43 6 7 151 c8 195 10 207 38 202 12
-3 74 -8 137 -11z m330 -180 l0 -175 -45 0 -45 0 0 53 c0 30 -3 109 -7 175
l-6 122 51 0 52 0 0 -175z"/>
<path d="M6070 1289 l0 -61 33 7 c17 4 35 10 39 14 8 7 -52 100 -64 101 -5 0
-8 -27 -8 -61z"/>
<path d="M4920 1216 c0 -38 15 -46 86 -46 45 0 64 14 64 46 0 28 -17 34 -91
34 l-59 0 0 -34z"/>
<path d="M3620 5330 c1 -3 13 -57 29 -120 l27 -114 33 58 34 58 -62 61 c-33
34 -61 60 -61 57z"/>
<path d="M6554 2220 c2 -8 14 -70 26 -138 l22 -123 57 32 c91 51 92 43 -15
149 -52 52 -93 88 -90 80z"/>
<path d="M3480 2193 c0 -16 -3 -37 -6 -49 -5 -18 7 -29 73 -72 125 -80 185
-113 191 -107 7 6 -238 255 -250 255 -5 0 -8 -12 -8 -27z"/>
<path d="M3860 1961 c0 -16 -3 -37 -6 -45 -5 -13 13 -25 77 -54 46 -22 93 -42
104 -46 11 -4 -20 34 -70 84 -49 49 -93 90 -97 90 -5 0 -8 -13 -8 -29z"/>
<path d="M6096 1849 c8 -41 14 -80 14 -88 0 -14 28 -10 82 12 l29 12 -70 69
-69 69 14 -74z"/>
</g>
</svg>
